<?xml version="1.0"?>
<svg viewBox="0 0 503.745 250" xmlns="http://www.w3.org/2000/svg" xmlns:svg="http://www.w3.org/2000/svg">
  <g class="layer" transform="matrix(1.0187959671020508, 0, 0, 0.8115500211715698, -6.222537040710449, -4.268068790435791)" style="">
    <title>Layer 1</title>
    <path d="m217.316755,243.718471c16.22025,-20.92431 22.52326,-44.90087 24.62067,-70.41931c1.17517,-14.29797 0.94153,-28.60205 1.14786,-42.91208c0.06454,-4.47729 -1.51029,-5.90881 -5.81882,-5.59332c-4.30799,0.31543 -8.65759,0.01636 -12.98599,0.11588c-3.01697,0.06939 -4.47611,-0.76804 -4.44352,-4.26645c0.11542,-12.39029 -0.0129,-12.4281 12.52176,-12.43595c15.97861,-0.01004 31.95841,0.15918 47.93521,0.00065c4.35926,-0.04325 6.34559,1.03332 6.23597,5.84966c-0.2815,12.36356 0.53351,10.64213 -10.79883,10.85257c-13.26514,0.24631 -11.61292,-1.69943 -11.44861,11.83243c0.30011,24.71408 -0.28101,49.37754 -8.00891,73.11454c-12.36591,37.98333 -34.31195,68.42364 -71.58905,85.40197c-30.77844,14.01831 -61.89932,13.82459 -92.71713,-0.57818c-11.19803,-5.23334 -21.81092,-11.45893 -31.79026,-18.75556c-1.27688,-0.93371 -2.81182,-1.68255 -3.5155,-4.69818c61.17041,33.13037 115.24136,27.95288 160.65515,-27.50867z" id="svg_16" opacity="1" style="fill: #253140; paint-order: fill;"></path>
    <path d="m356.254315,217.264491c-1.04998,3.33167 -3.54144,2.65314 -5.56579,2.63697c-15.94452,-0.1272 -13.60236,2.13562 -13.63947,-13.20661c-0.07367,-30.4776 -0.02472,-60.9555 -0.01489,-91.43328c0.00238,-7.50364 0.30896,-6.74653 7.39477,-7.89661c12.4198,-2.01581 18.23652,3.29611 22.73365,14.47696c7.56659,18.81235 16.86529,36.92856 25.46399,55.32425c0.66626,1.42541 1.1029,3.06506 2.63861,4.14972c1.16809,-1.91828 0.67926,-3.77173 0.68414,-5.52381c0.05713,-20.48498 0.04736,-40.97021 0.0954,-61.45529c0.01489,-6.36313 0.38281,-6.73773 6.8584,-6.74646c14.82629,-0.02005 12.53259,-1.49286 12.55731,12.27963c0.05572,30.97712 -0.06964,61.95466 -0.15296,92.93189c-0.01824,6.78998 -0.46911,6.21002 -6.97814,7.27118c-12.90583,2.10406 -19.52643,-2.65149 -23.99512,-15.13391c-6.32172,-17.65857 -14.96723,-34.48639 -22.65082,-51.65528c-1.2641,-2.82461 -2.68848,-5.57754 -4.03876,-8.36361c-0.43597,0.07232 -0.87188,0.14468 -1.30786,0.21701c0,23.88873 0,47.7774 -0.08246,72.12725z" id="svg_15" opacity="1" style="fill: #253140; paint-order: fill;"></path>
    <path d="m267.106915,70.715301c-11.62097,1.75101 -23.37262,1.81812 -33.86853,5.48227c-17.89221,6.24625 -35.54547,2.27087 -53.32373,1.96393c-5.66122,-0.09775 -11.32165,-0.30417 -16.97851,-0.55136c-1.56629,-0.06845 -3.37403,0.50848 -4.97016,-1.62949c4.68817,-2.66644 9.8548,-2.79724 14.7486,-3.53753c10.71326,-1.62067 21.56824,-2.76221 32.35162,-1.73414c13.23886,1.26224 24.74793,-4.12372 36.67691,-8.07492c5.17588,-1.71438 10.61679,-2.71374 15.48148,-5.21454c0.69025,-2.97518 -1.17542,-4.95144 -2.08008,-7.17959c-5.20099,-12.81003 -10.98434,-25.35733 -17.08163,-37.76444c-0.91327,-1.85836 -2.81458,-3.99261 -1.301,-5.95449c1.61801,-2.09733 4.25583,-1.04969 6.54022,-0.59613c4.91971,0.97668 8.80912,3.73617 12.5503,6.88268c11.98095,10.07685 24.12866,19.95911 35.96905,30.19745c3.6814,3.18326 7.39838,3.92591 11.92615,3.0568c27.10571,-5.2031 54.20392,-10.4506 81.35034,-15.43396c11.21796,-2.0593 21.0293,1.57565 29.55963,8.89129c1.66596,1.42878 3.21613,3.2006 2.65534,5.58332c-0.56977,2.42062 -3.03485,2.30056 -4.87342,2.77166c-17.94543,4.5979 -36.40417,6.1001 -54.6394,8.9466c-30.07306,4.6944 -60.17133,9.22757 -90.69318,13.89459z" id="svg_14" opacity="1" style="fill: #253140; paint-order: fill;"></path>
    <path d="m75.783885,182.941981c-3.725,15.86036 -11.67263,27.91749 -26.74804,34.40113c-4.0441,1.73926 -8.30518,2.43939 -12.6489,2.5061c-7.83121,0.1203 -15.66494,0.09259 -23.49765,0.09351c-6.54162,0.00073 -6.78317,-0.20868 -6.78155,-6.69672c0.00766,-30.33117 0.01617,-60.66241 0.08615,-90.9935c0.03195,-13.85248 0.09711,-13.89398 13.76388,-13.73913c4.82608,0.05468 9.64841,0.38989 14.47382,0.5588c23.4986,0.82257 35.94681,17.74475 40.82501,36.32349c3.22208,12.27136 3.18875,24.71307 0.52728,37.54632m-50.06179,-54.94421c-0.07077,23.13303 -0.10697,46.2663 -0.25455,69.39887c-0.01917,3.0075 1.44058,4.00445 4.07886,4.54974c11.02865,2.27924 21.00311,-4.46332 25.11862,-17.05121c3.2355,-9.89624 2.94867,-20.1084 2.01449,-30.18811c-1.43185,-15.45001 -10.31262,-25.20526 -24.62783,-28.27322c-2.06714,-0.443 -4.25721,-1.27713 -6.32959,1.56393z" id="svg_13" opacity="1" style="fill: #253140; paint-order: fill;"></path>
    <path d="m88.983875,139.609711c0.01794,-8.65805 0.11984,-16.81714 0.01703,-24.97366c-0.04603,-3.64939 1.04254,-5.45417 5.11663,-5.45472c15.31113,-0.00207 30.62192,-0.33145 45.93354,-0.42227c6.79537,-0.04031 7.15545,0.43662 7.13711,6.98511c-0.03341,11.94113 0.33295,10.06854 -10.23971,10.19504c-7.82428,0.0936 -15.65366,0.21707 -23.47358,0.02929c-3.96463,-0.09521 -5.24713,1.42267 -5.11126,5.28754c0.23965,6.81775 0.18496,13.65268 0.02264,20.47492c-0.082,3.44558 1.2081,4.72207 4.66916,4.67532c8.15353,-0.11011 16.30158,0.11304 24.44858,0.73663c3.50244,0.26813 5.11975,1.27051 5.02926,5.01013c-0.32409,13.39173 2.19196,12.38294 -12.10162,12.36878c-6.16016,-0.0061 -12.32089,0.04749 -18.48022,-0.02484c-3.16172,-0.03711 -4.47065,1.31079 -4.40601,4.51874c0.12735,6.32379 0.13095,12.6557 -0.04501,18.97778c-0.09183,3.29993 1.25546,4.36346 4.43149,4.32758c9.98809,-0.11262 19.98181,0.1286 29.96643,-0.08698c4.19467,-0.09052 5.94427,1.479 5.35058,5.53986c-2.02325,13.83911 2.04129,12.72674 -13.02713,12.84387c-12.9855,0.10095 -25.97464,-0.03626 -38.95615,0.22809c-4.72894,0.09631 -6.38067,-1.48365 -6.34484,-6.31482c0.18399,-24.80591 0.07217,-49.61402 0.06308,-74.92139z" id="svg_12" opacity="1" style="fill: #253140; paint-order: fill;"></path>
    <path d="m207.770125,126.233491c-2.23959,2.60281 -4.25986,2.40857 -6.80224,0.87195c-5.24982,-3.17292 -10.79914,-3.8971 -16.72056,-1.55792c-4.69384,1.85427 -8.02661,4.63906 -8.74661,9.87881c-0.77313,5.62649 0.82819,10.3584 5.82303,13.31332c5.15152,3.04767 10.6358,5.53125 15.80252,8.5553c8.56162,5.01117 15.53848,11.35834 17.84686,21.66907c3.31595,14.81128 -2.85611,30.05255 -15.26596,37.08008c-12.69211,7.18744 -32.55371,4.85174 -42.56027,-4.84406c-2.4295,-2.35406 -2.30908,-4.29742 0.20471,-6.13727c3.21967,-2.35644 6.59543,-4.49963 9.90274,-6.73645c1.93634,-1.30963 3.43399,-0.13269 5.01462,0.8274c4.20065,2.55133 8.80942,3.08099 13.50525,2.14239c10.07196,-2.01306 13.8804,-12.54956 7.78378,-21.38678c-2.61132,-3.78528 -6.29422,-6.34497 -10.26556,-8.56494c-4.79205,-2.67871 -9.67832,-5.23633 -14.23569,-8.27801c-10.89868,-7.27411 -15.56677,-20.98691 -12.03726,-34.44931c3.06064,-11.67402 14.96191,-21.30491 27.40774,-22.2912c8.42869,-0.66794 16.2764,0.70187 23.03153,6.16787c7.01846,5.67914 7.07663,7.36499 0.31137,13.73975z" id="svg_11" opacity="1" style="fill: #253140; paint-order: fill;"></path>
    <path d="m452.950115,217.219451c-0.05908,-12.46246 -0.20678,-24.46362 -0.04296,-36.46057c0.07275,-5.32867 -1.30109,-10.06757 -3.52247,-14.86554c-8.04766,-17.38232 -15.81793,-34.89316 -23.67596,-52.36313c-0.66895,-1.4873 -1.56146,-2.95209 -0.98614,-5.25668c5.70788,-1.26566 11.62573,-0.84528 17.51116,-0.22373c2.37537,0.25089 2.74433,2.57172 3.50086,4.42307c5.28693,12.93854 10.62024,25.85818 16.01422,38.96747c2.28644,-0.7591 2.49023,-2.5542 3.07428,-3.97425c4.75232,-11.55358 9.58502,-23.07696 14.10828,-34.72024c1.43335,-3.68948 3.64123,-5.34741 7.47015,-5.12445c4.53931,0.26434 9.26416,-0.94422 14.15741,1.64368c-2.75085,6.53735 -5.29022,12.82287 -8.02594,19.02172c-5.9184,13.41037 -11.8822,26.80143 -17.95331,40.1431c-1.5545,3.41602 -2.34351,6.82642 -2.30084,10.59808c0.13367,11.83149 -0.08698,23.66797 0.12836,35.49701c0.07861,4.31714 -1.51215,6.15528 -5.76496,5.97541c-3.16089,-0.13373 -6.33636,0.03662 -9.49261,-0.14692c-1.76459,-0.1026 -3.81946,-0.16632 -4.19953,-3.13403z" id="svg_10" opacity="1" style="fill: #253140; paint-order: fill;"></path>
    <path d="m290.777145,220.162691c8.78351,-18.96997 11.573,-38.8382 12.11084,-59.06439c0.41125,-15.46894 0.21271,-30.95893 0.01703,-46.43613c-0.05768,-4.56082 1.09833,-6.54492 6.1156,-6.49969c13.46057,0.12133 13.58954,-0.0828 13.48999,13.40112c-0.13251,17.96203 1.17956,35.92679 -0.07977,53.88443c-1.16321,16.58502 -3.82496,32.71228 -13.72357,46.76837c-6.44623,9.15369 -15.02936,15.97711 -24.03602,22.28552c-7.2171,5.055 -14.73755,9.68109 -22.18518,14.40003c-1.86627,1.18249 -3.80029,2.49377 -6.56262,2.00171c15.0116,-10.63044 26.53162,-24.09101 34.8537,-40.74097z" id="svg_9" opacity="1" style="fill: #253140; paint-order: fill;"></path>
  </g>
</svg>